<svg width="40" height="40" viewBox="0 0 40 40" fill="none" xmlns="http://www.w3.org/2000/svg">
<rect x="2" y="4" width="16" height="16" rx="8" fill="#2B7D9F"/>
<path d="M10.5795 15.1364C9.96591 15.1364 9.4375 14.9915 8.99432 14.7017C8.55114 14.4119 8.21023 14.0128 7.97159 13.5043C7.73295 12.9957 7.61364 12.4148 7.61364 11.7614C7.61364 11.0966 7.7358 10.5099 7.98011 10.0014C8.22727 9.49006 8.57102 9.09091 9.01136 8.80398C9.45455 8.5142 9.97159 8.36932 10.5625 8.36932C11.0227 8.36932 11.4375 8.45455 11.8068 8.625C12.1761 8.79545 12.4787 9.03409 12.7145 9.34091C12.9503 9.64773 13.0966 10.0057 13.1534 10.4148H12.1477C12.071 10.1165 11.9006 9.85227 11.6364 9.62216C11.375 9.3892 11.0227 9.27273 10.5795 9.27273C10.1875 9.27273 9.84375 9.375 9.5483 9.57955C9.25568 9.78125 9.02699 10.0668 8.86222 10.4361C8.70028 10.8026 8.61932 11.233 8.61932 11.7273C8.61932 12.233 8.69886 12.6733 8.85795 13.0483C9.01989 13.4233 9.24716 13.7145 9.53977 13.9219C9.83523 14.1293 10.1818 14.233 10.5795 14.233C10.8409 14.233 11.0781 14.1875 11.2912 14.0966C11.5043 14.0057 11.6847 13.875 11.8324 13.7045C11.9801 13.5341 12.0852 13.3295 12.1477 13.0909H13.1534C13.0966 13.4773 12.956 13.8253 12.7315 14.1349C12.5099 14.4418 12.2159 14.6861 11.8494 14.8679C11.4858 15.0469 11.0625 15.1364 10.5795 15.1364Z" fill="black"/>
<path d="M8.99432 14.7017L8.77542 15.0365L8.77542 15.0365L8.99432 14.7017ZM7.98011 10.0014L7.61997 9.82735L7.61957 9.8282L7.98011 10.0014ZM9.01136 8.80398L9.22974 9.13911L9.23026 9.13876L9.01136 8.80398ZM12.7145 9.34091L13.0316 9.09717L13.0316 9.09717L12.7145 9.34091ZM13.1534 10.4148V10.8148H13.6128L13.5496 10.3597L13.1534 10.4148ZM12.1477 10.4148L11.7603 10.5144L11.8376 10.8148H12.1477V10.4148ZM11.6364 9.62216L11.3702 9.92078L11.3737 9.92379L11.6364 9.62216ZM9.5483 9.57955L9.77531 9.90888L9.77598 9.90842L9.5483 9.57955ZM8.86222 10.4361L8.49692 10.2731L8.49634 10.2744L8.86222 10.4361ZM8.85795 13.0483L8.48971 13.2045L8.49073 13.2069L8.85795 13.0483ZM9.53977 13.9219L9.30848 14.2482L9.30997 14.2493L9.53977 13.9219ZM11.2912 14.0966L11.1342 13.7287L11.1342 13.7287L11.2912 14.0966ZM11.8324 13.7045L12.1347 13.9665L12.1347 13.9665L11.8324 13.7045ZM12.1477 13.0909V12.6909H11.839L11.7608 12.9896L12.1477 13.0909ZM13.1534 13.0909L13.5492 13.1491L13.6165 12.6909H13.1534V13.0909ZM12.7315 14.1349L12.4077 13.9002L12.4073 13.9007L12.7315 14.1349ZM11.8494 14.8679L12.0261 15.2268L12.0272 15.2262L11.8494 14.8679ZM10.5795 14.7364C10.031 14.7364 9.58149 14.6077 9.21322 14.3669L8.77542 15.0365C9.29351 15.3752 9.9008 15.5364 10.5795 15.5364V14.7364ZM9.21322 14.3669C8.83597 14.1203 8.54282 13.7799 8.3337 13.3343L7.60948 13.6742C7.87764 14.2456 8.2663 14.7036 8.77542 15.0365L9.21322 14.3669ZM8.3337 13.3343C8.12378 12.887 8.01364 12.3656 8.01364 11.7614H7.21364C7.21364 12.464 7.34213 13.1045 7.60948 13.6742L8.3337 13.3343ZM8.01364 11.7614C8.01364 11.1459 8.12655 10.6203 8.34066 10.1746L7.61957 9.8282C7.34504 10.3996 7.21364 11.0472 7.21364 11.7614H8.01364ZM8.34025 10.1755C8.55836 9.72424 8.85535 9.38307 9.22974 9.13911L8.79299 8.46885C8.2867 8.79875 7.89619 9.25588 7.61997 9.82735L8.34025 10.1755ZM9.23026 9.13876C9.60097 8.89638 10.04 8.76932 10.5625 8.76932V7.96932C9.90317 7.96932 9.30812 8.13203 8.79246 8.46919L9.23026 9.13876ZM10.5625 8.76932C10.9725 8.76932 11.3289 8.84499 11.6392 8.98818L11.9744 8.26182C11.5461 8.0641 11.073 7.96932 10.5625 7.96932V8.76932ZM11.6392 8.98818C11.9528 9.13294 12.203 9.3318 12.3973 9.58465L13.0316 9.09717C12.7544 8.73638 12.3994 8.45797 11.9744 8.26182L11.6392 8.98818ZM12.3973 9.58465C12.588 9.83277 12.7093 10.1246 12.7572 10.4698L13.5496 10.3597C13.4839 9.88675 13.3126 9.46268 13.0316 9.09717L12.3973 9.58465ZM13.1534 10.0148H12.1477V10.8148H13.1534V10.0148ZM12.5351 10.3152C12.4356 9.92799 12.2156 9.59624 11.8991 9.32053L11.3737 9.92379C11.5855 10.1083 11.7065 10.305 11.7603 10.5144L12.5351 10.3152ZM11.9025 9.32355C11.55 9.00933 11.0939 8.87273 10.5795 8.87273V9.67273C10.9516 9.67273 11.2 9.76908 11.3702 9.92076L11.9025 9.32355ZM10.5795 8.87273C10.1139 8.87273 9.68907 8.99558 9.32061 9.25067L9.77598 9.90842C9.99843 9.75442 10.2611 9.67273 10.5795 9.67273V8.87273ZM9.32128 9.25021C8.96017 9.49913 8.68741 9.84614 8.49692 10.2731L9.22751 10.5991C9.36656 10.2874 9.55119 10.0634 9.77531 9.90888L9.32128 9.25021ZM8.49634 10.2744C8.3073 10.7023 8.21932 11.1899 8.21932 11.7273H9.01932C9.01932 11.276 9.09327 10.9029 9.22809 10.5977L8.49634 10.2744ZM8.21932 11.7273C8.21932 12.2741 8.30526 12.7697 8.48972 13.2045L9.22619 12.8921C9.09246 12.5769 9.01932 12.1918 9.01932 11.7273H8.21932ZM8.49073 13.2069C8.67761 13.6396 8.94807 13.9928 9.30848 14.2482L9.77107 13.5955C9.54624 13.4362 9.36216 13.2069 9.22518 12.8897L8.49073 13.2069ZM9.30997 14.2493C9.67957 14.5087 10.1083 14.633 10.5795 14.633V13.833C10.2553 13.833 9.99088 13.7498 9.76958 13.5945L9.30997 14.2493ZM10.5795 14.633C10.888 14.633 11.1795 14.5791 11.4482 14.4645L11.1342 13.7287C10.9768 13.7959 10.7939 13.833 10.5795 13.833V14.633ZM11.4482 14.4645C11.7155 14.3504 11.9461 14.1841 12.1347 13.9665L11.5301 13.4426C11.4232 13.5659 11.293 13.6609 11.1342 13.7287L11.4482 14.4645ZM12.1347 13.9665C12.3262 13.7455 12.4581 13.4846 12.5347 13.1923L11.7608 12.9896C11.7123 13.1745 11.634 13.3227 11.5301 13.4426L12.1347 13.9665ZM12.1477 13.4909H13.1534V12.6909H12.1477V13.4909ZM12.7577 13.0327C12.71 13.3567 12.5934 13.6439 12.4077 13.9002L13.0554 14.3697C13.3185 14.0067 13.4832 13.5978 13.5492 13.1491L12.7577 13.0327ZM12.4073 13.9007C12.2267 14.1507 11.9848 14.3542 11.6717 14.5096L12.0272 15.2262C12.447 15.0179 12.7932 14.7328 13.0558 14.3691L12.4073 13.9007ZM11.6728 14.509C11.3737 14.6562 11.0129 14.7364 10.5795 14.7364V15.5364C11.1121 15.5364 11.5979 15.4375 12.0261 15.2268L11.6728 14.509Z" fill="black"/>
<rect x="22" y="23" width="16" height="16" rx="8" fill="#2B7D9F"/>
<path d="M27.0568 36V27.2727H30.0057C30.6875 27.2727 31.2472 27.3892 31.6847 27.6222C32.1222 27.8523 32.446 28.169 32.6562 28.5724C32.8665 28.9759 32.9716 29.4347 32.9716 29.9489C32.9716 30.4631 32.8665 30.919 32.6562 31.3168C32.446 31.7145 32.1236 32.027 31.6889 32.2543C31.2543 32.4787 30.6989 32.5909 30.0227 32.5909H27.6364V31.6364H29.9886C30.4545 31.6364 30.8295 31.5682 31.1136 31.4318C31.4006 31.2955 31.608 31.1023 31.7358 30.8523C31.8665 30.5994 31.9318 30.2983 31.9318 29.9489C31.9318 29.5994 31.8665 29.294 31.7358 29.0327C31.6051 28.7713 31.3963 28.5696 31.1094 28.4276C30.8224 28.2827 30.4432 28.2102 29.9716 28.2102H28.1136V36H27.0568ZM31.1648 32.0795L33.3125 36H32.0852L29.9716 32.0795H31.1648Z" fill="black"/>
<path d="M27.0568 36H26.6568V36.4H27.0568V36ZM27.0568 27.2727V26.8727H26.6568V27.2727H27.0568ZM31.6847 27.6222L31.4967 27.9752L31.4985 27.9762L31.6847 27.6222ZM32.6562 28.5724L32.3015 28.7573L32.3015 28.7573L32.6562 28.5724ZM32.6562 31.3168L32.3026 31.1298L32.3026 31.1298L32.6562 31.3168ZM31.6889 32.2543L31.8724 32.6097L31.8743 32.6087L31.6889 32.2543ZM27.6364 32.5909H27.2364V32.9909H27.6364V32.5909ZM27.6364 31.6364V31.2364H27.2364V31.6364H27.6364ZM31.1136 31.4318L30.9419 31.0705L30.9405 31.0712L31.1136 31.4318ZM31.7358 30.8523L31.3804 30.6686L31.3797 30.6702L31.7358 30.8523ZM31.1094 28.4276L30.9291 28.7846L30.9319 28.786L31.1094 28.4276ZM28.1136 28.2102V27.8102H27.7136V28.2102H28.1136ZM28.1136 36V36.4H28.5136V36H28.1136ZM31.1648 32.0795L31.5156 31.8874L31.4017 31.6795H31.1648V32.0795ZM33.3125 36V36.4H33.9877L33.6633 35.8078L33.3125 36ZM32.0852 36L31.7331 36.1898L31.8465 36.4H32.0852V36ZM29.9716 32.0795V31.6795H29.3015L29.6195 32.2694L29.9716 32.0795ZM27.4568 36V27.2727H26.6568V36H27.4568ZM27.0568 27.6727H30.0057V26.8727H27.0568V27.6727ZM30.0057 27.6727C30.6453 27.6727 31.1347 27.7825 31.4967 27.9752L31.8727 27.2691C31.3597 26.9959 30.7297 26.8727 30.0057 26.8727V27.6727ZM31.4985 27.9762C31.8704 28.1718 32.1322 28.4324 32.3015 28.7573L33.011 28.3876C32.7598 27.9056 32.3739 27.5327 31.8709 27.2681L31.4985 27.9762ZM32.3015 28.7573C32.4783 29.0966 32.5716 29.4905 32.5716 29.9489H33.3716C33.3716 29.3788 33.2546 28.8551 33.011 28.3876L32.3015 28.7573ZM32.5716 29.9489C32.5716 30.4073 32.4783 30.7975 32.3026 31.1298L33.0099 31.5037C33.2547 31.0406 33.3716 30.5188 33.3716 29.9489H32.5716ZM32.3026 31.1298C32.1337 31.4495 31.8733 31.7065 31.5036 31.8998L31.8743 32.6087C32.3739 32.3475 32.7584 31.9795 33.0099 31.5037L32.3026 31.1298ZM31.5054 31.8988C31.145 32.085 30.6581 32.1909 30.0227 32.1909V32.9909C30.7396 32.9909 31.3636 32.8724 31.8724 32.6097L31.5054 31.8988ZM30.0227 32.1909H27.6364V32.9909H30.0227V32.1909ZM28.0364 32.5909V31.6364H27.2364V32.5909H28.0364ZM27.6364 32.0364H29.9886V31.2364H27.6364V32.0364ZM29.9886 32.0364C30.4881 32.0364 30.9291 31.9641 31.2867 31.7924L30.9405 31.0712C30.73 31.1723 30.421 31.2364 29.9886 31.2364V32.0364ZM31.2853 31.7931C31.6408 31.6242 31.9188 31.3729 32.0919 31.0344L31.3797 30.6702C31.2971 30.8316 31.1603 30.9668 30.9419 31.0705L31.2853 31.7931ZM32.0911 31.0359C32.2571 30.7148 32.3318 30.3479 32.3318 29.9489H31.5318C31.5318 30.2487 31.4758 30.484 31.3805 30.6686L32.0911 31.0359ZM32.3318 29.9489C32.3318 29.5494 32.2569 29.1805 32.0936 28.8538L31.378 29.2116C31.476 29.4075 31.5318 29.6495 31.5318 29.9489H32.3318ZM32.0936 28.8538C31.9202 28.507 31.6439 28.2459 31.2868 28.0691L30.9319 28.786C31.1487 28.8934 31.2901 29.0356 31.378 29.2116L32.0936 28.8538ZM31.2897 28.0705C30.9269 27.8873 30.4788 27.8102 29.9716 27.8102V28.6102C30.4076 28.6102 30.718 28.678 30.9291 28.7846L31.2897 28.0705ZM29.9716 27.8102H28.1136V28.6102H29.9716V27.8102ZM27.7136 28.2102V36H28.5136V28.2102H27.7136ZM28.1136 35.6H27.0568V36.4H28.1136V35.6ZM30.814 32.2717L32.9617 36.1922L33.6633 35.8078L31.5156 31.8874L30.814 32.2717ZM33.3125 35.6H32.0852V36.4H33.3125V35.6ZM32.4373 35.8102L30.3237 31.8897L29.6195 32.2694L31.7331 36.1898L32.4373 35.8102ZM29.9716 32.4795H31.1648V31.6795H29.9716V32.4795Z" fill="black"/>
<path d="M17.767 19.4545V20.3068H14.375V19.4545H17.767ZM15.3636 17.8864H16.3693V24.125C16.3693 24.4091 16.4105 24.6222 16.4929 24.7642C16.5781 24.9034 16.6861 24.9972 16.8168 25.0455C16.9503 25.0909 17.0909 25.1136 17.2386 25.1136C17.3494 25.1136 17.4403 25.108 17.5114 25.0966C17.5824 25.0824 17.6392 25.071 17.6818 25.0625L17.8864 25.9659C17.8182 25.9915 17.723 26.017 17.6009 26.0426C17.4787 26.071 17.3239 26.0852 17.1364 26.0852C16.8523 26.0852 16.5739 26.0241 16.3011 25.902C16.0313 25.7798 15.8068 25.5938 15.6278 25.3438C15.4517 25.0938 15.3636 24.7784 15.3636 24.3977V17.8864ZM21.8686 26.1364C21.2777 26.1364 20.7592 25.9957 20.3132 25.7145C19.87 25.4332 19.5234 25.0398 19.2734 24.5341C19.0263 24.0284 18.9027 23.4375 18.9027 22.7614C18.9027 22.0795 19.0263 21.4844 19.2734 20.9759C19.5234 20.4673 19.87 20.0724 20.3132 19.7912C20.7592 19.5099 21.2777 19.3693 21.8686 19.3693C22.4595 19.3693 22.9766 19.5099 23.4197 19.7912C23.8658 20.0724 24.2124 20.4673 24.4595 20.9759C24.7095 21.4844 24.8345 22.0795 24.8345 22.7614C24.8345 23.4375 24.7095 24.0284 24.4595 24.5341C24.2124 25.0398 23.8658 25.4332 23.4197 25.7145C22.9766 25.9957 22.4595 26.1364 21.8686 26.1364ZM21.8686 25.233C22.3175 25.233 22.6868 25.1179 22.9766 24.8878C23.2663 24.6577 23.4808 24.3551 23.62 23.9801C23.7592 23.6051 23.8288 23.1989 23.8288 22.7614C23.8288 22.3239 23.7592 21.9162 23.62 21.5384C23.4808 21.1605 23.2663 20.8551 22.9766 20.6222C22.6868 20.3892 22.3175 20.2727 21.8686 20.2727C21.4197 20.2727 21.0504 20.3892 20.7607 20.6222C20.4709 20.8551 20.2564 21.1605 20.1172 21.5384C19.978 21.9162 19.9084 22.3239 19.9084 22.7614C19.9084 23.1989 19.978 23.6051 20.1172 23.9801C20.2564 24.3551 20.4709 24.6577 20.7607 24.8878C21.0504 25.1179 21.4197 25.233 21.8686 25.233Z" fill="#B57700"/>
</svg>
